<svg xmlns="http://www.w3.org/2000/svg" aria-labelledby="title desc" role="img" viewBox="0 0 180 180"><title id="title">GitHub</title><desc id="desc">GitHub cat silhouette icon tile.</desc><rect width="180" height="180" fill="#0D1117" rx="24"/><circle cx="90" cy="90" r="52" fill="#fff"/><path fill="#0D1117" d="M90 52c-21 0-38 17-38 38 0 17 11 31 26 36 2 0 3-1 3-2v-8c-11 2-13-5-13-5-2-4-4-5-4-5-3-2 0-2 0-2 4 0 6 4 6 4 3 6 9 5 11 4 0-3 2-5 3-6-9-1-18-5-18-21 0-4 2-8 4-10 0-1-2-5 0-10 0 0 3-1 10 4 3-1 7-2 10-2s7 1 10 2c7-5 10-4 10-4 2 5 0 9 0 10 2 2 4 6 4 10 0 16-9 20-18 21 2 2 3 4 3 8v12c0 1 1 2 3 2 15-5 26-19 26-36 0-21-17-38-38-38z"/></svg>